/* XPM */
static char *gun_xpm[] = {
/* width height num_colors chars_per_pixel */
"120 80 6 1",
/* colors */
"  c #FF00FF",
". c #333333",
"# c #555555",
"+ c #777777",
"@ c #999999",
"* c #222222",
/* pixels */
"                                                                                                                        ",
"                                                                                                                        ",
"                                                                                                                        ",
"                                                                                                                        ",
"                                                                                                                        ",
"                                                                                                                        ",
"                                                                                                                        ",
"                                                                                                                        ",
"                                                                                                                        ",
"                                                                                                                        ",
"                                                                                                                        ",
"                                                                                                                        ",
"                                                                                                                        ",
"                                                                                                                        ",
"                                                                                                                        ",
"                                                                                                                        ",
"                                                                                                                        ",
"                                                                                                                        ",
"                                                                                                                        ",
"                                                                                                                        ",
"                                                    ....                                                                ",
"                                                   ......                                                               ",
"                                                  ........                                                              ",
"                                                 ..........                                                             ",
"                                                ............                                                            ",
"                                               ..............                                                           ",
"                                              ................                                                          ",
"                                             ..................                                                         ",
"                                            ....................                                                        ",
"                                           ......................                                                       ",
"                                          ........................                                                      ",
"                                         ..........................                                                     ",
"                                        ............................                                                    ",
"                                       ..............................                                                   ",
"                                      ................................                                                  ",
"                                     ..................................                                                 ",
"                                    ....................................                                                ",
"                         ...........******..............................                                                ",
"                        .............******.............................                                                ",
"                       ...............****..............................                                                ",
"                      .................................................+                                                ",
"                     ..................................................++                                               ",
"                    ...................................................+++                                              ",
"                   ....................................................++++                                             ",
"                  .....................................................+++++                                            ",
"                 ......................................................++++++                                           ",
"                .......................................................+++++++                                          ",
"               ........................................................++++++++                                         ",
"              .........................................................+++++++++                                        ",
"             ..........................................................++++++++++                                       ",
"            ...........................................................+++++++++++                                      ",
"           ............................................................++++++++++++                                     ",
"          .............................................................+++++++++++++                                    ",
"         ..............................................................++++++++++++++                                   ",
"        ...............................................................+++++++++++++++                                  ",
"       ................................................................++++++++++++++++                                 ",
"      .................................................................+++++++++++++++++                                ",
"     ..................................................................++++++++++++++++++                               ",
"    ...................................................................+++++++++++++++++++                              ",
"   ....................................................................++++++++++++++++++++                             ",
"  .....................................................................+++++++++++++++++++++                            ",
" ......................................................................++++++++++++++++++++++                           ",
".......................................................................+++++++++++++++++++++++                          ",
"........................................................................++++++++++++++++++++++                          ",
".........................................................................+++++++++++++++++++++                          ",
"..........................................................................++++++++++++++++++++                          ",
"...........................................................................+++++++++++++++++++                          ",
"............................................................................++++++++++++++++++                          ",
".............................................................................+++++++++++++++++                          ",
"..............................................................................++++++++++++++++                          ",
"...............................................................................+++++++++++++++                          ",
"................................................................................++++++++++++++                          ",
".................................................................................+++++++++++++                          ",
"..................................................................................++++++++++++                          ",
"...................................................................................+++++++++++                          ",
"....................................................................................++++++++++                          ",
".....................................................................................+++++++++                          ",
"......................................................................................++++++++                          ",
".......................................................................................+++++++                          ",
"........................................................................................++++++                          "
};
