/* XPM */
static char *spritesheet[] = {
"96 32 5 1",
"0 c None",
". c #1C1C1C",
"R c #E74C3C",
"Y c #F1C40F",
"S c #2C3E50",
/* pixels */
"000000000000000000000000000000000000000000000000000000000000000000000000000000000000000000000000",
"000000000000000000000000000000000000000000000000000000000000000000000000000000000000000000000000",
"000000000000........000000000000000000000000........000000000000000000000000........000000000000",
"0000000000..RRRRRRRR..00000000000000000000..RRRRRRRR..00000000000000000000..RRRRRRRR..0000000000",
"000000000..RRRRRRRRRR..000000000000000000..RRRRRRRRRR..000000000000000000..RRRRRRRRRR..000000000",
"00000000..RRRRRRRRRRRR..0000000000000000..RRRRRRRRRRRR..0000000000000000..RRRRRRRRRRRR..00000000",
"00000000.RRRRRRRRRRRRRR.0000000000000000.RRRRRRRRRRRRRR.0000000000000000.RRRRRRRRRRRRRR.00000000",
"0000000.RRRRRRRRRRRRRRRR.00000000000000.RRRRRRRRRRRRRRRR.00000000000000.RRRRRRRRRRRRRRRR.0000000",
"0000000.RRRRRRRRRRRRRRRR.00000000000000.RRRRRRRRRRRRRRRR.00000000000000.RRRRRRRRRRRRRRRR.0000000",
"000000.RRRRYRRRRRRRYRRRRR.000000000000.RRRRYRRRRRRRYRRRRR.000000000000.RRRRYRRRRRRRYRRRRR.000000",
"000000.RRRRYRRRRRRRYRRRRR.000000000000.RRRRYRRRRRRRYRRRRR.000000000000.RRRRYRRRRRRRYRRRRR.000000",
"000000.RRRRRRRRRRRRRRRRRR.000000000000.RRRRRRRRRRRRRRRRRR.000000000000.RRRRRRRRRRRRRRRRRR.000000",
"000000.RRRRRRRRRRRRRRRRRR.000000000000.RRRRRRRRRRRRRRRRRR.000000000000.RRRRRRRRRRRRRRRRRR.000000",
"000000.RRRRRRRRRRRRRRRRRR.000000000000.RRRRRRRRRRRRRRRRRR.000000000000.RRRRRRRRRRRRRRRRRR.000000",
"00RRRR0.RRRRRRRRRRRRRRRR.0RRR0000000RRR.RRRRRRRRRRRRRRRR.RRR0000000RRR0.RRRRRRRRRRRRRRRR.0RRRR00",
"00RRRR0.RRRRRRRRRRRRRRRR.0RRR0000000RRR.RRRRRRRRRRRRRRRR.RRR0000000RRR0.RRRRRRRRRRRRRRRR.0RRRR00",
"00RRRR00.RRRRRRRRRRRRRR.00RRR0000000RRR0.RRRRRRRRRRRRRR.0RRR0000000RRR00.RRRRRRRRRRRRRR.00RRRR00",
"00RRRR00..RRRRRRRRRRRR..00RRR0000000RRR0..RRRRRRRRRRRR..0RRR0000000RRR00..RRRRRRRRRRRR..00RRRR00",
"000000000..RRRRRRRRRR..000RRR0000000RRR00..RRRRRRRRRR..00RRR0000000RRR000..RRRRRRRRRR..000000000",
"0000000000..RRRRRRRR..0000RRR0000000RRR000..RRRRRRRR..000RRR0000000RRR0000..RRRRRRRR..0000000000",
"000000000000........000000RRR0000000RRR00000........00000RRR0000000RRR000000........000000000000",
"000000000000000000000000000000000000RRR000000000000000000RRR000000000000000000000000000000000000",
"000000RRRRR000000000000RRR0000000000RRR000RRR000000RRR000RRR0000000000RRR000000000000RRRRR000000",
"000000RRRRR000000000000RRR0000000000RRR000RRR000000RRR000RRR0000000000RRR000000000000RRRRR000000",
"000000RRRRR000000000000RRR0000000000000000RRR000000RRR0000000000000000RRR000000000000RRRRR000000",
"000000RRRRR000000000000RRR0000000000000000RRR000000RRR0000000000000000RRR000000000000RRRRR000000",
"000000RRRRR0000000000000000000000000000000RRR000000RRR0000000000000000000000000000000RRRRR000000",
"000000RRRRR0000000000000000000000000000000RRR000000RRR0000000000000000000000000000000RRRRR000000",
"000000000000000000000000000000000000000000000000000000000000000000000000000000000000000000000000",
"000000000000000000000000000000000000000000000000000000000000000000000000000000000000000000000000",
"0000000000SSSSSSSSSSSSS0000000000000000000SSSSSSSSSSSSS0000000000000000000SSSSSSSSSSSSS000000000",
"0000000000SSSSSSSSSSSSS0000000000000000000SSSSSSSSSSSSS0000000000000000000SSSSSSSSSSSSS000000000",
};
