/* XPM */
static char *wall_south_xpm[] = {
"64 64 2 1",
"0 c #FFD700",
"1 c #B8860B",
"0000000000000000111111111111111100000000000000001111111111111111",
"0000000000000000111111111111111100000000000000001111111111111111",
"0000000000000000111111111111111100000000000000001111111111111111",
"0000000000000000111111111111111100000000000000001111111111111111",
"1111111111111111000000000000000011111111111111110000000000000000",
"1111111111111111000000000000000011111111111111110000000000000000",
"1111111111111111000000000000000011111111111111110000000000000000",
"1111111111111111000000000000000011111111111111110000000000000000",
"0000000000000000111111111111111100000000000000001111111111111111",
"0000000000000000111111111111111100000000000000001111111111111111",
"0000000000000000111111111111111100000000000000001111111111111111",
"0000000000000000111111111111111100000000000000001111111111111111",
"1111111111111111000000000000000011111111111111110000000000000000",
"1111111111111111000000000000000011111111111111110000000000000000",
"1111111111111111000000000000000011111111111111110000000000000000",
"1111111111111111000000000000000011111111111111110000000000000000",
"0000000000000000111111111111111100000000000000001111111111111111",
"0000000000000000111111111111111100000000000000001111111111111111",
"0000000000000000111111111111111100000000000000001111111111111111",
"0000000000000000111111111111111100000000000000001111111111111111",
"1111111111111111000000000000000011111111111111110000000000000000",
"1111111111111111000000000000000011111111111111110000000000000000",
"1111111111111111000000000000000011111111111111110000000000000000",
"1111111111111111000000000000000011111111111111110000000000000000",
"0000000000000000111111111111111100000000000000001111111111111111",
"0000000000000000111111111111111100000000000000001111111111111111",
"0000000000000000111111111111111100000000000000001111111111111111",
"0000000000000000111111111111111100000000000000001111111111111111",
"1111111111111111000000000000000011111111111111110000000000000000",
"1111111111111111000000000000000011111111111111110000000000000000",
"1111111111111111000000000000000011111111111111110000000000000000",
"1111111111111111000000000000000011111111111111110000000000000000",
"0000000000000000111111111111111100000000000000001111111111111111",
"0000000000000000111111111111111100000000000000001111111111111111",
"0000000000000000111111111111111100000000000000001111111111111111",
"0000000000000000111111111111111100000000000000001111111111111111",
"1111111111111111000000000000000011111111111111110000000000000000",
"1111111111111111000000000000000011111111111111110000000000000000",
"1111111111111111000000000000000011111111111111110000000000000000",
"1111111111111111000000000000000011111111111111110000000000000000",
"0000000000000000111111111111111100000000000000001111111111111111",
"0000000000000000111111111111111100000000000000001111111111111111",
"0000000000000000111111111111111100000000000000001111111111111111",
"0000000000000000111111111111111100000000000000001111111111111111",
"1111111111111111000000000000000011111111111111110000000000000000",
"1111111111111111000000000000000011111111111111110000000000000000",
"1111111111111111000000000000000011111111111111110000000000000000",
"1111111111111111000000000000000011111111111111110000000000000000",
"0000000000000000111111111111111100000000000000001111111111111111",
"0000000000000000111111111111111100000000000000001111111111111111",
"0000000000000000111111111111111100000000000000001111111111111111",
"0000000000000000111111111111111100000000000000001111111111111111",
"1111111111111111000000000000000011111111111111110000000000000000",
"1111111111111111000000000000000011111111111111110000000000000000",
"1111111111111111000000000000000011111111111111110000000000000000",
"1111111111111111000000000000000011111111111111110000000000000000",
"0000000000000000111111111111111100000000000000001111111111111111",
"0000000000000000111111111111111100000000000000001111111111111111",
"0000000000000000111111111111111100000000000000001111111111111111",
"0000000000000000111111111111111100000000000000001111111111111111",
"1111111111111111000000000000000011111111111111110000000000000000",
"1111111111111111000000000000000011111111111111110000000000000000",
"1111111111111111000000000000000011111111111111110000000000000000",
"1111111111111111000000000000000011111111111111110000000000000000"
};
