/* XPM */
static char *wall_north_xpm[] = {
"64 64 2 1",
"0 c #1E90FF",
"1 c #104E8B",
"0101010101010101010101010101010101010101010101010101010101010101",
"1010101010101010101010101010101010101010101010101010101010101010",
"0101010101010101010101010101010101010101010101010101010101010101",
"1010101010101010101010101010101010101010101010101010101010101010",
"0101010101010101010101010101010101010101010101010101010101010101",
"1010101010101010101010101010101010101010101010101010101010101010",
"0101010101010101010101010101010101010101010101010101010101010101",
"1010101010101010101010101010101010101010101010101010101010101010",
"0101010101010101010101010101010101010101010101010101010101010101",
"1010101010101010101010101010101010101010101010101010101010101010",
"0101010101010101010101010101010101010101010101010101010101010101",
"1010101010101010101010101010101010101010101010101010101010101010",
"0101010101010101010101010101010101010101010101010101010101010101",
"1010101010101010101010101010101010101010101010101010101010101010",
"0101010101010101010101010101010101010101010101010101010101010101",
"1010101010101010101010101010101010101010101010101010101010101010",
"0101010101010101010101010101010101010101010101010101010101010101",
"1010101010101010101010101010101010101010101010101010101010101010",
"0101010101010101010101010101010101010101010101010101010101010101",
"1010101010101010101010101010101010101010101010101010101010101010",
"0101010101010101010101010101010101010101010101010101010101010101",
"1010101010101010101010101010101010101010101010101010101010101010",
"0101010101010101010101010101010101010101010101010101010101010101",
"1010101010101010101010101010101010101010101010101010101010101010",
"0101010101010101010101010101010101010101010101010101010101010101",
"1010101010101010101010101010101010101010101010101010101010101010",
"0101010101010101010101010101010101010101010101010101010101010101",
"1010101010101010101010101010101010101010101010101010101010101010",
"0101010101010101010101010101010101010101010101010101010101010101",
"1010101010101010101010101010101010101010101010101010101010101010",
"0101010101010101010101010101010101010101010101010101010101010101",
"1010101010101010101010101010101010101010101010101010101010101010",
"0101010101010101010101010101010101010101010101010101010101010101",
"1010101010101010101010101010101010101010101010101010101010101010",
"0101010101010101010101010101010101010101010101010101010101010101",
"1010101010101010101010101010101010101010101010101010101010101010",
"0101010101010101010101010101010101010101010101010101010101010101",
"1010101010101010101010101010101010101010101010101010101010101010",
"0101010101010101010101010101010101010101010101010101010101010101",
"1010101010101010101010101010101010101010101010101010101010101010",
"0101010101010101010101010101010101010101010101010101010101010101",
"1010101010101010101010101010101010101010101010101010101010101010",
"0101010101010101010101010101010101010101010101010101010101010101",
"1010101010101010101010101010101010101010101010101010101010101010",
"0101010101010101010101010101010101010101010101010101010101010101",
"1010101010101010101010101010101010101010101010101010101010101010",
"0101010101010101010101010101010101010101010101010101010101010101",
"1010101010101010101010101010101010101010101010101010101010101010",
"0101010101010101010101010101010101010101010101010101010101010101",
"1010101010101010101010101010101010101010101010101010101010101010",
"0101010101010101010101010101010101010101010101010101010101010101",
"1010101010101010101010101010101010101010101010101010101010101010",
"0101010101010101010101010101010101010101010101010101010101010101",
"1010101010101010101010101010101010101010101010101010101010101010",
"0101010101010101010101010101010101010101010101010101010101010101",
"1010101010101010101010101010101010101010101010101010101010101010",
"0101010101010101010101010101010101010101010101010101010101010101",
"1010101010101010101010101010101010101010101010101010101010101010",
"0101010101010101010101010101010101010101010101010101010101010101",
"1010101010101010101010101010101010101010101010101010101010101010",
"0101010101010101010101010101010101010101010101010101010101010101",
"1010101010101010101010101010101010101010101010101010101010101010",
"0101010101010101010101010101010101010101010101010101010101010101",
"1010101010101010101010101010101010101010101010101010101010101010",
"0101010101010101010101010101010101010101010101010101010101010101",
"1010101010101010101010101010101010101010101010101010101010101010",
"0101010101010101010101010101010101010101010101010101010101010101",
"1010101010101010101010101010101010101010101010101010101010101010"
};
