/* XPM */
static char *wall_east_xpm[] = {
"64 64 2 1",
"0 c #FF6347",
"1 c #8B2F1B",
"0000000011111111000000001111111100000000111111110000000011111111",
"1111111100000000111111110000000011111111000000001111111100000000",
"0000000011111111000000001111111100000000111111110000000011111111",
"1111111100000000111111110000000011111111000000001111111100000000",
"0000000011111111000000001111111100000000111111110000000011111111",
"1111111100000000111111110000000011111111000000001111111100000000",
"0000000011111111000000001111111100000000111111110000000011111111",
"1111111100000000111111110000000011111111000000001111111100000000",
"0000000011111111000000001111111100000000111111110000000011111111",
"1111111100000000111111110000000011111111000000001111111100000000",
"0000000011111111000000001111111100000000111111110000000011111111",
"1111111100000000111111110000000011111111000000001111111100000000",
"0000000011111111000000001111111100000000111111110000000011111111",
"1111111100000000111111110000000011111111000000001111111100000000",
"0000000011111111000000001111111100000000111111110000000011111111",
"1111111100000000111111110000000011111111000000001111111100000000",
"0000000011111111000000001111111100000000111111110000000011111111",
"1111111100000000111111110000000011111111000000001111111100000000",
"0000000011111111000000001111111100000000111111110000000011111111",
"1111111100000000111111110000000011111111000000001111111100000000",
"0000000011111111000000001111111100000000111111110000000011111111",
"1111111100000000111111110000000011111111000000001111111100000000",
"0000000011111111000000001111111100000000111111110000000011111111",
"1111111100000000111111110000000011111111000000001111111100000000",
"0000000011111111000000001111111100000000111111110000000011111111",
"1111111100000000111111110000000011111111000000001111111100000000",
"0000000011111111000000001111111100000000111111110000000011111111",
"1111111100000000111111110000000011111111000000001111111100000000",
"0000000011111111000000001111111100000000111111110000000011111111",
"1111111100000000111111110000000011111111000000001111111100000000",
"0000000011111111000000001111111100000000111111110000000011111111",
"1111111100000000111111110000000011111111000000001111111100000000",
"0000000011111111000000001111111100000000111111110000000011111111",
"1111111100000000111111110000000011111111000000001111111100000000",
"0000000011111111000000001111111100000000111111110000000011111111",
"1111111100000000111111110000000011111111000000001111111100000000",
"0000000011111111000000001111111100000000111111110000000011111111",
"1111111100000000111111110000000011111111000000001111111100000000",
"0000000011111111000000001111111100000000111111110000000011111111",
"1111111100000000111111110000000011111111000000001111111100000000",
"0000000011111111000000001111111100000000111111110000000011111111",
"1111111100000000111111110000000011111111000000001111111100000000",
"0000000011111111000000001111111100000000111111110000000011111111",
"1111111100000000111111110000000011111111000000001111111100000000",
"0000000011111111000000001111111100000000111111110000000011111111",
"1111111100000000111111110000000011111111000000001111111100000000",
"0000000011111111000000001111111100000000111111110000000011111111",
"1111111100000000111111110000000011111111000000001111111100000000",
"0000000011111111000000001111111100000000111111110000000011111111",
"1111111100000000111111110000000011111111000000001111111100000000",
"0000000011111111000000001111111100000000111111110000000011111111",
"1111111100000000111111110000000011111111000000001111111100000000",
"0000000011111111000000001111111100000000111111110000000011111111",
"1111111100000000111111110000000011111111000000001111111100000000",
"0000000011111111000000001111111100000000111111110000000011111111",
"1111111100000000111111110000000011111111000000001111111100000000",
"0000000011111111000000001111111100000000111111110000000011111111",
"1111111100000000111111110000000011111111000000001111111100000000",
"0000000011111111000000001111111100000000111111110000000011111111",
"1111111100000000111111110000000011111111000000001111111100000000",
"0000000011111111000000001111111100000000111111110000000011111111",
"1111111100000000111111110000000011111111000000001111111100000000",
"0000000011111111000000001111111100000000111111110000000011111111",
"1111111100000000111111110000000011111111000000001111111100000000"
};
