/* XPM */
static char *wall_west_xpm[] = {
"64 64 2 1",
"0 c #8FBC8F",
"1 c #2E8B57",
"0000111100001111000011110000111100001111000011110000111100001111",
"0000111100001111000011110000111100001111000011110000111100001111",
"1111000011110000111100001111000011110000111100001111000011110000",
"1111000011110000111100001111000011110000111100001111000011110000",
"0000111100001111000011110000111100001111000011110000111100001111",
"0000111100001111000011110000111100001111000011110000111100001111",
"1111000011110000111100001111000011110000111100001111000011110000",
"1111000011110000111100001111000011110000111100001111000011110000",
"0000111100001111000011110000111100001111000011110000111100001111",
"0000111100001111000011110000111100001111000011110000111100001111",
"1111000011110000111100001111000011110000111100001111000011110000",
"1111000011110000111100001111000011110000111100001111000011110000",
"0000111100001111000011110000111100001111000011110000111100001111",
"0000111100001111000011110000111100001111000011110000111100001111",
"1111000011110000111100001111000011110000111100001111000011110000",
"1111000011110000111100001111000011110000111100001111000011110000",
"0000111100001111000011110000111100001111000011110000111100001111",
"0000111100001111000011110000111100001111000011110000111100001111",
"1111000011110000111100001111000011110000111100001111000011110000",
"1111000011110000111100001111000011110000111100001111000011110000",
"0000111100001111000011110000111100001111000011110000111100001111",
"0000111100001111000011110000111100001111000011110000111100001111",
"1111000011110000111100001111000011110000111100001111000011110000",
"1111000011110000111100001111000011110000111100001111000011110000",
"0000111100001111000011110000111100001111000011110000111100001111",
"0000111100001111000011110000111100001111000011110000111100001111",
"1111000011110000111100001111000011110000111100001111000011110000",
"1111000011110000111100001111000011110000111100001111000011110000",
"0000111100001111000011110000111100001111000011110000111100001111",
"0000111100001111000011110000111100001111000011110000111100001111",
"1111000011110000111100001111000011110000111100001111000011110000",
"1111000011110000111100001111000011110000111100001111000011110000",
"0000111100001111000011110000111100001111000011110000111100001111",
"0000111100001111000011110000111100001111000011110000111100001111",
"1111000011110000111100001111000011110000111100001111000011110000",
"1111000011110000111100001111000011110000111100001111000011110000",
"0000111100001111000011110000111100001111000011110000111100001111",
"0000111100001111000011110000111100001111000011110000111100001111",
"1111000011110000111100001111000011110000111100001111000011110000",
"1111000011110000111100001111000011110000111100001111000011110000",
"0000111100001111000011110000111100001111000011110000111100001111",
"0000111100001111000011110000111100001111000011110000111100001111",
"1111000011110000111100001111000011110000111100001111000011110000",
"1111000011110000111100001111000011110000111100001111000011110000",
"0000111100001111000011110000111100001111000011110000111100001111",
"0000111100001111000011110000111100001111000011110000111100001111",
"1111000011110000111100001111000011110000111100001111000011110000",
"1111000011110000111100001111000011110000111100001111000011110000",
"0000111100001111000011110000111100001111000011110000111100001111",
"0000111100001111000011110000111100001111000011110000111100001111",
"1111000011110000111100001111000011110000111100001111000011110000",
"1111000011110000111100001111000011110000111100001111000011110000",
"0000111100001111000011110000111100001111000011110000111100001111",
"0000111100001111000011110000111100001111000011110000111100001111",
"1111000011110000111100001111000011110000111100001111000011110000",
"1111000011110000111100001111000011110000111100001111000011110000",
"0000111100001111000011110000111100001111000011110000111100001111",
"0000111100001111000011110000111100001111000011110000111100001111",
"1111000011110000111100001111000011110000111100001111000011110000",
"1111000011110000111100001111000011110000111100001111000011110000",
"0000111100001111000011110000111100001111000011110000111100001111",
"0000111100001111000011110000111100001111000011110000111100001111",
"1111000011110000111100001111000011110000111100001111000011110000",
"1111000011110000111100001111000011110000111100001111000011110000"
};
