/* XPM */
static char *wall_south_xpm[] = {
"64 64 2 1",
"0 c #FFD700",
"1 c #B8860B",
"0011001100110011001100110011001100110011001100110011001100110011",
"1100110011001100110011001100110011001100110011001100110011001100",
"0011001100110011001100110011001100110011001100110011001100110011",
"1100110011001100110011001100110011001100110011001100110011001100",
"0011001100110011001100110011001100110011001100110011001100110011",
"1100110011001100110011001100110011001100110011001100110011001100",
"0011001100110011001100110011001100110011001100110011001100110011",
"1100110011001100110011001100110011001100110011001100110011001100",
"0011001100110011001100110011001100110011001100110011001100110011",
"1100110011001100110011001100110011001100110011001100110011001100",
"0011001100110011001100110011001100110011001100110011001100110011",
"1100110011001100110011001100110011001100110011001100110011001100",
"0011001100110011001100110011001100110011001100110011001100110011",
"1100110011001100110011001100110011001100110011001100110011001100",
"0011001100110011001100110011001100110011001100110011001100110011",
"1100110011001100110011001100110011001100110011001100110011001100",
"0011001100110011001100110011001100110011001100110011001100110011",
"1100110011001100110011001100110011001100110011001100110011001100",
"0011001100110011001100110011001100110011001100110011001100110011",
"1100110011001100110011001100110011001100110011001100110011001100",
"0011001100110011001100110011001100110011001100110011001100110011",
"1100110011001100110011001100110011001100110011001100110011001100",
"0011001100110011001100110011001100110011001100110011001100110011",
"1100110011001100110011001100110011001100110011001100110011001100",
"0011001100110011001100110011001100110011001100110011001100110011",
"1100110011001100110011001100110011001100110011001100110011001100",
"0011001100110011001100110011001100110011001100110011001100110011",
"1100110011001100110011001100110011001100110011001100110011001100",
"0011001100110011001100110011001100110011001100110011001100110011",
"1100110011001100110011001100110011001100110011001100110011001100",
"0011001100110011001100110011001100110011001100110011001100110011",
"1100110011001100110011001100110011001100110011001100110011001100",
"0011001100110011001100110011001100110011001100110011001100110011",
"1100110011001100110011001100110011001100110011001100110011001100",
"0011001100110011001100110011001100110011001100110011001100110011",
"1100110011001100110011001100110011001100110011001100110011001100",
"0011001100110011001100110011001100110011001100110011001100110011",
"1100110011001100110011001100110011001100110011001100110011001100",
"0011001100110011001100110011001100110011001100110011001100110011",
"1100110011001100110011001100110011001100110011001100110011001100",
"0011001100110011001100110011001100110011001100110011001100110011",
"1100110011001100110011001100110011001100110011001100110011001100",
"0011001100110011001100110011001100110011001100110011001100110011",
"1100110011001100110011001100110011001100110011001100110011001100",
"0011001100110011001100110011001100110011001100110011001100110011",
"1100110011001100110011001100110011001100110011001100110011001100",
"0011001100110011001100110011001100110011001100110011001100110011",
"1100110011001100110011001100110011001100110011001100110011001100",
"0011001100110011001100110011001100110011001100110011001100110011",
"1100110011001100110011001100110011001100110011001100110011001100",
"0011001100110011001100110011001100110011001100110011001100110011",
"1100110011001100110011001100110011001100110011001100110011001100",
"0011001100110011001100110011001100110011001100110011001100110011",
"1100110011001100110011001100110011001100110011001100110011001100",
"0011001100110011001100110011001100110011001100110011001100110011",
"1100110011001100110011001100110011001100110011001100110011001100",
"0011001100110011001100110011001100110011001100110011001100110011",
"1100110011001100110011001100110011001100110011001100110011001100",
"0011001100110011001100110011001100110011001100110011001100110011",
"1100110011001100110011001100110011001100110011001100110011001100",
"0011001100110011001100110011001100110011001100110011001100110011",
"1100110011001100110011001100110011001100110011001100110011001100",
"0011001100110011001100110011001100110011001100110011001100110011",
"1100110011001100110011001100110011001100110011001100110011001100"
};
